<svg width="337" height="266" viewBox="0 0 337 266" fill="none" xmlns="http://www.w3.org/2000/svg">
<g style="mix-blend-mode:multiply" opacity="0.17" filter="url(#filter0_i_0_223)">
<path d="M323.399 44.9069C318.698 33.9548 314.248 23.6122 312.789 14.3777C308.051 -15.6898 290.127 -40.4197 260.926 -57.171C236.012 -71.4845 203.442 -79.3892 169.197 -79.4631L168.44 -79.5C75.6665 -79.5 0.186523 -2.11509 0.186523 93C0.186523 188.115 75.6665 265.5 168.44 265.5H169.269V265.463C186.058 265.389 198.452 260.384 211.566 255.065C222.537 250.614 233.886 246.034 249.378 243.744C306.7 235.266 337 183.147 337 93C337 76.5072 330.083 60.4392 323.399 44.9069ZM290.613 136.513C290.289 112.023 283.389 87.1084 267.951 70.7449C249.937 51.6665 256.098 44.6668 266.294 33.0498C271.59 27.0289 278.634 18.9949 278.85 8.96628C279.498 10.7762 280.129 12.6416 280.705 14.5624C284.867 28.488 290.739 39.8094 296.414 50.78C305.313 67.9561 312.987 82.7867 312.987 104.765C312.987 122.384 305.331 129.698 290.613 136.494V136.513ZM168.62 245.72V246.588L168.584 245.72C168.584 245.72 168.602 245.72 168.62 245.72ZM260.457 -21.8584C255.053 -27.2883 249.36 -32.1271 243.416 -36.3935C249.469 -32.3857 255.233 -27.5838 260.457 -21.8584ZM36.8096 93C36.8096 18.6071 95.8425 -41.9342 168.386 -41.9526H168.602V-42.045C204.811 -41.9896 235.021 -27.1959 258.368 1.91114C263.718 8.57843 262.529 10.9425 253.486 21.2297C243.344 32.7728 226.356 52.0913 255.557 83.0268C268.996 97.2663 274.364 120.999 273.338 143.586C260.872 148.499 247.271 154.409 235.525 165.14C224.285 175.408 216.665 189.574 209.297 203.26C207.045 207.434 204.919 211.312 202.829 214.914C201.803 215.486 200.794 216.04 199.785 216.613C189.319 222.486 179.429 228.027 168.53 228.045L168.422 227.953C95.8425 227.953 36.7916 167.411 36.7916 93H36.8096ZM270.653 163.773C269.5 168.797 268.005 173.58 266.186 177.939C262.115 187.709 252.765 204.054 235.76 204.054C235.634 204.054 235.507 204.054 235.381 204.054C232.967 204.054 230.608 204.275 228.302 204.663C233.814 194.672 239.723 185.012 247.019 178.327C254.08 171.862 262.241 167.448 270.653 163.755V163.773ZM246.929 226.253C231.472 228.544 219.637 232.865 209.261 237.021C211.35 234.214 213.296 231.24 215.151 228.23C222.087 224.573 228.788 221.747 235.381 221.747H235.76C255.413 221.747 272.275 208.339 282.02 184.902C285.569 176.406 288.091 166.58 289.46 156.201C299.098 152.322 308.79 147.797 316.32 140.631C308.033 191.92 284.795 220.657 246.929 226.272V226.253Z" fill="url(#paint0_linear_0_223)"/>
</g>
<defs>
<filter id="filter0_i_0_223" x="0.186523" y="-79.5" width="337.814" height="347" filterUnits="userSpaceOnUse" color-interpolation-filters="sRGB">
<feFlood flood-opacity="0" result="BackgroundImageFix"/>
<feBlend mode="normal" in="SourceGraphic" in2="BackgroundImageFix" result="shape"/>
<feColorMatrix in="SourceAlpha" type="matrix" values="0 0 0 0 0 0 0 0 0 0 0 0 0 0 0 0 0 0 127 0" result="hardAlpha"/>
<feOffset dx="1" dy="2"/>
<feGaussianBlur stdDeviation="1.5"/>
<feComposite in2="hardAlpha" operator="arithmetic" k2="-1" k3="1"/>
<feColorMatrix type="matrix" values="0 0 0 0 0 0 0 0 0 0 0 0 0 0 0 0 0 0 0.07 0"/>
<feBlend mode="normal" in2="shape" result="effect1_innerShadow_0_223"/>
</filter>
<linearGradient id="paint0_linear_0_223" x1="168.593" y1="-5.97051" x2="168.593" y2="265.5" gradientUnits="userSpaceOnUse">
<stop stop-color="#2A72A7" stop-opacity="0"/>
<stop offset="1" stop-color="#102C41"/>
</linearGradient>
</defs>
</svg>
