<svg width="44" height="44" viewBox="0 0 44 44" fill="none" xmlns="http://www.w3.org/2000/svg">
<path d="M21.7573 22.3213C18.8141 22.3213 16.2946 21.2733 14.1987 19.1774C12.1029 17.0816 11.0549 14.562 11.0549 11.6189C11.0549 8.67573 12.1029 6.15621 14.1987 4.06033C16.2946 1.96445 18.8141 0.916504 21.7573 0.916504C24.7005 0.916504 27.22 1.96445 29.3159 4.06033C31.4117 6.15621 32.4597 8.67573 32.4597 11.6189C32.4597 14.562 31.4117 17.0816 29.3159 19.1774C27.22 21.2733 24.7005 22.3213 21.7573 22.3213ZM0.352539 43.726V36.2344C0.352539 34.7182 0.74273 33.3246 1.52311 32.0537C2.30349 30.7828 3.34029 29.8129 4.63349 29.144C7.39827 27.7616 10.2076 26.7248 13.0616 26.0337C15.9156 25.3425 18.8141 24.9969 21.7573 24.9969C24.7005 24.9969 27.599 25.3425 30.453 26.0337C33.3069 26.7248 36.1163 27.7616 38.8811 29.144C40.1743 29.8129 41.2111 30.7828 41.9915 32.0537C42.7719 33.3246 43.1621 34.7182 43.1621 36.2344V43.726H0.352539ZM5.70373 38.3748H37.8109V36.2344C37.8109 35.7438 37.6882 35.2979 37.443 34.8966C37.1977 34.4952 36.8744 34.1831 36.4731 33.9601C34.065 32.7561 31.6347 31.8531 29.1821 31.2511C26.7294 30.6491 24.2545 30.348 21.7573 30.348C19.2601 30.348 16.7852 30.6491 14.3325 31.2511C11.8799 31.8531 9.44956 32.7561 7.04153 33.9601C6.64019 34.1831 6.31689 34.4952 6.07162 34.8966C5.82636 35.2979 5.70373 35.7438 5.70373 36.2344V38.3748ZM21.7573 16.9701C23.2289 16.9701 24.4886 16.4461 25.5366 15.3982C26.5845 14.3502 27.1085 13.0905 27.1085 11.6189C27.1085 10.1473 26.5845 8.88755 25.5366 7.83961C24.4886 6.79167 23.2289 6.26769 21.7573 6.26769C20.2857 6.26769 19.026 6.79167 17.978 7.83961C16.9301 8.88755 16.4061 10.1473 16.4061 11.6189C16.4061 13.0905 16.9301 14.3502 17.978 15.3982C19.026 16.4461 20.2857 16.9701 21.7573 16.9701Z" fill="#503A92"/>
</svg>
