<svg width="19" height="18" viewBox="0 0 19 18" fill="none" xmlns="http://www.w3.org/2000/svg">
<g id="content_copy">
<mask id="mask0_0_312" style="mask-type:alpha" maskUnits="userSpaceOnUse" x="0" y="0" width="19" height="18">
<rect id="Bounding box" x="0.5" width="18" height="18" fill="#D9D9D9"/>
</mask>
<g mask="url(#mask0_0_312)">
<path id="content_copy_2" d="M7.25 13.5C6.8375 13.5 6.48438 13.3531 6.19063 13.0594C5.89688 12.7656 5.75 12.4125 5.75 12V3C5.75 2.5875 5.89688 2.23438 6.19063 1.94063C6.48438 1.64688 6.8375 1.5 7.25 1.5H14C14.4125 1.5 14.7656 1.64688 15.0594 1.94063C15.3531 2.23438 15.5 2.5875 15.5 3V12C15.5 12.4125 15.3531 12.7656 15.0594 13.0594C14.7656 13.3531 14.4125 13.5 14 13.5H7.25ZM7.25 12H14V3H7.25V12ZM4.25 16.5C3.8375 16.5 3.48438 16.3531 3.19063 16.0594C2.89688 15.7656 2.75 15.4125 2.75 15V4.5H4.25V15H12.5V16.5H4.25Z" fill="#625682"/>
</g>
</g>
</svg>
