<svg width="37" height="37" viewBox="0 0 37 37" fill="none" xmlns="http://www.w3.org/2000/svg">
<path d="M33.6204 15.5623H32.4121V15.5H18.9121V21.5H27.3894C26.1526 24.9928 22.8294 27.5 18.9121 27.5C13.9419 27.5 9.91211 23.4702 9.91211 18.5C9.91211 13.5297 13.9419 9.5 18.9121 9.5C21.2064 9.5 23.2936 10.3655 24.8829 11.7792L29.1256 7.5365C26.4466 5.03975 22.8631 3.5 18.9121 3.5C10.6284 3.5 3.91211 10.2162 3.91211 18.5C3.91211 26.7838 10.6284 33.5 18.9121 33.5C27.1959 33.5 33.9121 26.7838 33.9121 18.5C33.9121 17.4943 33.8086 16.5125 33.6204 15.5623Z" fill="#FFC107"/>
<path d="M5.6416 11.5182L10.5699 15.1325C11.9034 11.831 15.1329 9.5 18.9121 9.5C21.2064 9.5 23.2936 10.3655 24.8829 11.7792L29.1256 7.5365C26.4466 5.03975 22.8631 3.5 18.9121 3.5C13.1506 3.5 8.1541 6.75275 5.6416 11.5182Z" fill="#FF3D00"/>
<path d="M18.9121 33.5C22.7866 33.5 26.3071 32.0173 28.9688 29.606L24.3263 25.6775C22.7698 26.8613 20.8677 27.5016 18.9121 27.5C15.0106 27.5 11.6978 25.0123 10.4498 21.5405L5.55835 25.3093C8.04085 30.167 13.0823 33.5 18.9121 33.5Z" fill="#4CAF50"/>
<path d="M33.6204 15.5623H32.4121V15.5H18.9121V21.5H27.3894C26.7978 23.1623 25.7321 24.6149 24.3241 25.6782L24.3264 25.6768L28.9689 29.6052C28.6404 29.9037 33.9121 26 33.9121 18.5C33.9121 17.4943 33.8086 16.5125 33.6204 15.5623Z" fill="#1976D2"/>
</svg>
