<svg width="13" height="12" viewBox="0 0 13 12" fill="none" xmlns="http://www.w3.org/2000/svg">
<path id="Vector 6" d="M0.7426 10.2929C0.352076 10.6834 0.352076 11.3166 0.7426 11.7071C1.13312 12.0976 1.76629 12.0976 2.15681 11.7071L0.7426 10.2929ZM12.4497 1C12.4497 0.447715 12.002 0 11.4497 0H2.44971C1.89742 0 1.44971 0.447715 1.44971 1C1.44971 1.55228 1.89742 2 2.44971 2H10.4497V10C10.4497 10.5523 10.8974 11 11.4497 11C12.002 11 12.4497 10.5523 12.4497 10V1ZM2.15681 11.7071L12.1568 1.70711L10.7426 0.292893L0.7426 10.2929L2.15681 11.7071Z" fill="#C2BFCA"/>
</svg>
