<svg width="13" height="13" viewBox="0 0 13 13" fill="none" xmlns="http://www.w3.org/2000/svg">
<path id="Vector 6" d="M11.7885 2.58211C12.1791 2.19158 12.1791 1.55842 11.7885 1.16789C11.398 0.777369 10.7648 0.777369 10.3743 1.16789L11.7885 2.58211ZM0.0814209 11.875C0.0814209 12.4273 0.529137 12.875 1.08142 12.875H10.0814C10.6337 12.875 11.0814 12.4273 11.0814 11.875C11.0814 11.3227 10.6337 10.875 10.0814 10.875H2.08142V2.875C2.08142 2.32271 1.63371 1.875 1.08142 1.875C0.529137 1.875 0.0814209 2.32271 0.0814209 2.875V11.875ZM10.3743 1.16789L0.374314 11.1679L1.78853 12.5821L11.7885 2.58211L10.3743 1.16789Z" fill="#C2BFCA"/>
</svg>
